<svg width="16" height="16" viewBox="0 0 16 16" fill="none" xmlns="http://www.w3.org/2000/svg">
<path d="M4.46967 1.46967C4.76256 1.17678 5.23744 1.17678 5.53033 1.46967L7.53033 3.46967C7.82322 3.76256 7.82322 4.23744 7.53033 4.53033C7.23744 4.82322 6.76256 4.82322 6.46967 4.53033L5.75 3.81066V5.08086C5.21131 5.19849 4.69502 5.44446 4.25 5.81878V3.81066L3.53033 4.53033C3.23744 4.82322 2.76256 4.82322 2.46967 4.53033C2.17678 4.23744 2.17678 3.76256 2.46967 3.46967L4.46967 1.46967Z" fill="#17A25D"/>
<path d="M4.73223 6.73223C5.02726 6.43721 5.37767 6.23134 5.75 6.11461C6.60981 5.84507 7.58648 6.05095 8.26777 6.73223L9 7.46447L9.73223 6.73223C10.7085 5.75592 12.2915 5.75592 13.2678 6.73223C14.2441 7.70854 14.2441 9.29146 13.2678 10.2678L9 14.5355L4.73223 10.2678C3.95884 9.49438 3.7981 8.34034 4.25 7.40871C4.36857 7.16428 4.52931 6.93515 4.73223 6.73223Z" fill="#17A25D"/>
</svg>
