<svg width="16" height="16" viewBox="0 0 16 16" fill="none" xmlns="http://www.w3.org/2000/svg">
<path fill-rule="evenodd" clip-rule="evenodd" d="M3.05025 3.05025C2.8139 3.2866 2.59437 3.53978 2.39362 3.80783C1.5184 4.97641 1 6.42766 1 8C1 11.866 4.13401 15 8 15C9.57234 15 11.0236 14.4816 12.1922 13.6064C12.4602 13.4056 12.7134 13.1861 12.9497 12.9497L3.05025 3.05025ZM10.032 11.4462L10.7574 12.1716C9.96696 12.6951 9.01908 13 8 13C5.23858 13 3 10.7614 3 8C3 6.98092 3.30488 6.03304 3.8284 5.24261L4.55382 5.96803C4.20193 6.56355 4 7.25819 4 8C4 10.2091 5.79086 12 8 12C8.74181 12 9.43645 11.7981 10.032 11.4462ZM6 8C6 7.82084 6.02356 7.64718 6.06774 7.48196L8.51804 9.93226C8.35282 9.97644 8.17916 10 8 10C6.89543 10 6 9.10457 6 8Z" fill="#7C49F6"/>
<path d="M13.6064 12.1922C14.4816 11.0236 15 9.57234 15 8C15 4.13401 11.866 1 8 1C6.42766 1 4.97641 1.5184 3.80783 2.39362L5.24261 3.8284C6.03304 3.30488 6.98092 3 8 3C10.7614 3 13 5.23858 13 8C13 9.01908 12.6951 9.96696 12.1716 10.7574L13.6064 12.1922Z" fill="#7C49F6"/>
<path d="M7.48196 6.06774L5.96803 4.55382C6.56355 4.20193 7.25819 4 8 4C10.2091 4 12 5.79086 12 8C12 8.74181 11.7981 9.43645 11.4462 10.032L9.93226 8.51804C9.97644 8.35282 10 8.17916 10 8C10 6.89543 9.10457 6 8 6C7.82084 6 7.64718 6.02356 7.48196 6.06774Z" fill="#7C49F6"/>
</svg>
